Coordinates
version=1
nRows=18
nColumns=38
inDegrees=no

Units are S.I. units (second, meters, Newtons, ...)
If the header above contains a line with 'inDegrees', this indicates whether rotational values are in degrees (yes) or radians (no).

endheader
time	pelvis_tilt	pelvis_list	pelvis_rotation	pelvis_tx	pelvis_ty	pelvis_tz	hip_flexion_r	hip_adduction_r	hip_rotation_r	knee_angle_r	ankle_angle_r	subtalar_angle_r	mtp_angle_r	hip_flexion_l	hip_adduction_l	hip_rotation_l	knee_angle_l	ankle_angle_l	subtalar_angle_l	mtp_angle_l	lumbar_extension	lumbar_bending	lumbar_rotation	arm_flex_r	arm_add_r	arm_rot_r	elbow_flex_r	pro_sup_r	wrist_flex_r	wrist_dev_r	arm_flex_l	arm_add_l	arm_rot_l	elbow_flex_l	pro_sup_l	wrist_flex_l	wrist_dev_l
1.965	-0.127618	0.0737844	-0.0397953	1.89307	0.969582	-0.462739	-0.152411	-0.0974532	0.0328251	0.153409	0.277952	0.0423496	-3.84394e-09	0.526705	0.0291235	-0.135447	0.0471327	0.0855381	0.0144817	-3.80747e-09	-0.163242	-0.10784	0.118931	0.0735547	-0.292869	0.235948	1.25935	1.43816	-2.94956e-10	-4.15609e-10	-0.260401	-0.192189	-0.0433535	0.63666	1.4695	1.06118e-10	-7.33384e-10
1.97	-0.125915	0.0733387	-0.0446597	1.90062	0.96877	-0.462856	-0.155261	-0.0990929	0.0348845	0.165986	0.277027	0.0432847	-3.84394e-09	0.525844	0.0275608	-0.134681	0.0615363	0.0825293	0.0117256	-3.80747e-09	-0.162391	-0.109462	0.122489	0.07197	-0.289103	0.234225	1.25397	1.43892	-2.94956e-10	-4.15609e-10	-0.259269	-0.192646	-0.0424216	0.633261	1.47014	1.06118e-10	-7.33384e-10
1.975	-0.124521	0.0727659	-0.0495244	1.90822	0.967951	-0.462981	-0.157335	-0.10068	0.0370298	0.179513	0.275683	0.044014	-3.84394e-09	0.525382	0.0257484	-0.133699	0.0774224	0.0790532	0.00877158	-3.80747e-09	-0.161084	-0.110939	0.125994	0.0699861	-0.284993	0.231925	1.24797	1.43981	-2.94956e-10	-4.15609e-10	-0.257997	-0.193212	-0.0414529	0.629799	1.47079	1.06118e-10	-7.33384e-10
1.98	-0.123497	0.0721213	-0.0542239	1.91587	0.96712	-0.463133	-0.158566	-0.102251	0.0391297	0.194004	0.27389	0.044536	-3.84394e-09	0.52539	0.023821	-0.132497	0.0944166	0.0751119	0.00574241	-3.80747e-09	-0.159289	-0.112282	0.129283	0.0676546	-0.280539	0.229085	1.24135	1.44084	-2.94956e-10	-4.15609e-10	-0.256602	-0.19388	-0.0404517	0.626298	1.47144	1.06118e-10	-7.33384e-10
1.985	-0.122865	0.0714876	-0.058595	1.92356	0.96628	-0.463334	-0.158899	-0.103869	0.0410357	0.209471	0.271612	0.0448545	-3.84394e-09	0.525931	0.0219494	-0.131119	0.112158	0.070727	0.00277317	-3.80747e-09	-0.156991	-0.113531	0.132173	0.0650336	-0.275746	0.225749	1.23409	1.44203	-2.94956e-10	-4.15609e-10	-0.255106	-0.194644	-0.0394263	0.622789	1.47209	1.06118e-10	-7.33384e-10
1.99	-0.122626	0.0709679	-0.0624747	1.93128	0.965457	-0.463606	-0.158303	-0.105613	0.0426097	0.225944	0.268805	0.0449733	-3.84394e-09	0.527029	0.0203109	-0.129656	0.130325	0.0659451	-3.05698e-06	-3.80747e-09	-0.154204	-0.114737	0.1345	0.062185	-0.270628	0.221976	1.22618	1.44339	-2.94956e-10	-4.15609e-10	-0.253534	-0.19549	-0.038385	0.619317	1.47274	1.06118e-10	-7.33384e-10
1.995	-0.122773	0.0706494	-0.0657501	1.93903	0.964682	-0.463964	-0.156764	-0.107565	0.0437525	0.243468	0.265411	0.0448914	-3.84394e-09	0.52866	0.0190539	-0.128249	0.148646	0.0608478	-0.00246949	-3.80747e-09	-0.150975	-0.115952	0.13615	0.0591706	-0.26521	0.217826	1.21763	1.44494	-2.94956e-10	-4.15609e-10	-0.251916	-0.196401	-0.0373339	0.615935	1.47339	1.06118e-10	-7.33384e-10
2	-0.123254	0.0706018	-0.0683706	1.94678	0.963982	-0.464422	-0.154282	-0.109788	0.0444226	0.262115	0.261364	0.0446004	-3.84394e-09	0.530738	0.0182695	-0.127063	0.166894	0.0555555	-0.004539	-3.80747e-09	-0.147376	-0.117213	0.137078	0.0560487	-0.259527	0.213365	1.20845	1.44668	-2.94956e-10	-4.15609e-10	-0.250285	-0.197352	-0.0362805	0.612706	1.47403	1.06118e-10	-7.33384e-10
2.005	-0.124011	0.0708488	-0.0703629	1.95455	0.963371	-0.464981	-0.150864	-0.112318	0.0446362	0.281982	0.256594	0.04409	-3.84394e-09	0.533121	0.0179823	-0.126264	0.184883	0.0502218	-0.00616299	-3.80747e-09	-0.143502	-0.118529	0.137316	0.0528716	-0.253625	0.208656	1.19867	1.44863	-2.94956e-10	-4.15609e-10	-0.248676	-0.198317	-0.0352267	0.609697	1.47468	1.06118e-10	-7.33384e-10
2.01	-0.124969	0.071377	-0.0718098	1.96231	0.962854	-0.465638	-0.146518	-0.115168	0.0444501	0.303186	0.251031	0.0433557	-3.72227e-09	0.535629	0.0181612	-0.125983	0.202453	0.0450173	-0.0073368	-3.75434e-09	-0.139453	-0.119888	0.136949	0.049685	-0.247555	0.20376	1.18831	1.45076	-3.05799e-10	-4.57564e-10	-0.247123	-0.199267	-0.0341665	0.606973	1.47531	1.18771e-10	-7.79056e-10
2.015	-0.126052	0.0721524	-0.0728155	1.97006	0.962435	-0.466385	-0.141243	-0.118331	0.0439352	0.325863	0.244621	0.0424062	-3.72227e-09	0.538075	0.0187436	-0.126289	0.219474	0.040111	-0.00810031	-3.75434e-09	-0.135329	-0.12126	0.136083	0.0465294	-0.241363	0.198728	1.17743	1.45307	-3.05799e-10	-4.57564e-10	-0.245654	-0.200183	-0.0330891	0.604588	1.47594	1.18771e-10	-7.79056e-10
2.02	-0.127186	0.0731336	-0.0734809	1.97779	0.962114	-0.467213	-0.135031	-0.121793	0.0431527	0.350145	0.237328	0.0412677	-3.72227e-09	0.540289	0.0196636	-0.127175	0.235852	0.0356561	-0.0085317	-3.75434e-09	-0.131219	-0.122615	0.134817	0.043442	-0.23509	0.193604	1.16605	1.45554	-3.05799e-10	-4.57564e-10	-0.244286	-0.201052	-0.0319733	0.602578	1.47655	1.18771e-10	-7.79056e-10
2.025	-0.12831	0.0742856	-0.0738851	1.98551	0.961891	-0.468112	-0.127868	-0.125545	0.0421406	0.376155	0.229136	0.0399823	-3.72227e-09	0.542143	0.0208753	-0.128561	0.251528	0.0317811	-0.00873606	-3.75434e-09	-0.127201	-0.123935	0.133218	0.0404601	-0.228766	0.188426	1.15421	1.45813	-3.05799e-10	-4.57564e-10	-0.243021	-0.201878	-0.030788	0.60096	1.47712	1.18771e-10	-7.79056e-10
2.03	-0.12937	0.0755906	-0.0740733	1.99319	0.96176	-0.469073	-0.119746	-0.129592	0.040915	0.403983	0.220044	0.0386007	-3.72227e-09	0.543553	0.0223648	-0.130307	0.266484	0.0285864	-0.00883006	-3.75434e-09	-0.123344	-0.125223	0.131316	0.0376224	-0.222407	0.183225	1.14195	1.4608	-3.05799e-10	-4.57564e-10	-0.241843	-0.202677	-0.0294987	0.599733	1.47762	1.18771e-10	-7.79056e-10
2.035	-0.130318	0.0770535	-0.0740549	2.00084	0.961719	-0.470088	-0.110662	-0.133959	0.0394808	0.433668	0.210053	0.0371746	-3.72227e-09	0.544482	0.0241514	-0.132249	0.280726	0.0261434	-0.00892532	-3.75434e-09	-0.119705	-0.12651	0.129106	0.0349682	-0.216025	0.178031	1.12928	1.4635	-3.05799e-10	-4.57564e-10	-0.240722	-0.203476	-0.0280658	0.59888	1.47804	1.18771e-10	-7.79056e-10
2.04	-0.131119	0.0786994	-0.0738273	2.00845	0.961759	-0.47115	-0.100632	-0.138678	0.0378494	0.465184	0.199159	0.0357484	-3.72227e-09	0.544926	0.0262771	-0.134223	0.294283	0.0244967	-0.00911394	-3.75434e-09	-0.116331	-0.127847	0.126568	0.0325348	-0.209626	0.172875	1.11625	1.46619	-3.05799e-10	-4.57564e-10	-0.239613	-0.204309	-0.0264477	0.598374	1.47834	1.18771e-10	-7.79056e-10
2.045	-0.131759	0.0805635	-0.073383	2.01599	0.961868	-0.472253	-0.0896894	-0.143788	0.0360561	0.498427	0.187342	0.0343509	-3.72227e-09	0.544907	0.0287908	-0.13609	0.307189	0.0236675	-0.00945938	-3.75434e-09	-0.113252	-0.129299	0.123679	0.0303534	-0.203217	0.167785	1.10288	1.46882	-3.05799e-10	-4.57564e-10	-0.238467	-0.205214	-0.0246094	0.598185	1.47852	1.18771e-10	-7.79056e-10
2.05	-0.132245	0.0826687	-0.072718	2.02346	0.96204	-0.473386	-0.0778888	-0.149312	0.0341721	0.533218	0.174579	0.0329917	-3.72227e-09	0.544455	0.0317303	-0.13775	0.319471	0.0236567	-0.009994	-3.75434e-09	-0.110487	-0.130928	0.120431	0.0284458	-0.196812	0.162795	1.08918	1.47135	-3.05799e-10	-4.57564e-10	-0.237233	-0.206224	-0.022521	0.598284	1.47856	1.18771e-10	-7.79056e-10
